<?xml version="1.0" encoding="UTF-8" standalone="no"?>
<!-- Created with Inkscape (http://www.inkscape.org/) -->

<svg
   xmlns:dc="http://purl.org/dc/elements/1.1/"
   xmlns:cc="http://creativecommons.org/ns#"
   xmlns:rdf="http://www.w3.org/1999/02/22-rdf-syntax-ns#"
   xmlns:svg="http://www.w3.org/2000/svg"
   xmlns="http://www.w3.org/2000/svg"
   xmlns:sodipodi="http://sodipodi.sourceforge.net/DTD/sodipodi-0.dtd"
   xmlns:inkscape="http://www.inkscape.org/namespaces/inkscape"
   width="450"
   height="330"
   id="svg4618"
   version="1.1"
   inkscape:version="0.48.4 r9939"
   sodipodi:docname="New document 13">
  <defs
     id="defs4620" />
  <sodipodi:namedview
     id="base"
     pagecolor="#ffffff"
     bordercolor="#666666"
     borderopacity="1.0"
     inkscape:pageopacity="0.0"
     inkscape:pageshadow="2"
     inkscape:zoom="1.5598674"
     inkscape:cx="215.80429"
     inkscape:cy="165.46169"
     inkscape:document-units="px"
     inkscape:current-layer="layer1"
     showgrid="false"
     units="px"
     inkscape:window-width="1920"
     inkscape:window-height="1018"
     inkscape:window-x="-8"
     inkscape:window-y="-8"
     inkscape:window-maximized="1" />
  <metadata
     id="metadata4623">
    <rdf:RDF>
      <cc:Work
         rdf:about="">
        <dc:format>image/svg+xml</dc:format>
        <dc:type
           rdf:resource="http://purl.org/dc/dcmitype/StillImage" />
        <dc:title></dc:title>
      </cc:Work>
    </rdf:RDF>
  </metadata>
  <g
     inkscape:label="Layer 1"
     inkscape:groupmode="layer"
     id="layer1"
     transform="translate(0,-722.35993)">
    <path
       style="fill:none;stroke:#000000;stroke-width:7.00697899;stroke-linecap:butt;stroke-linejoin:miter;stroke-miterlimit:4;stroke-opacity:1;stroke-dasharray:none"
       d="m 399.78931,937.06651 -84.77741,21.53125 -152.3821,34.24328 -93.419523,20.73856 c -5.722781,0.7211 -7.519682,-1.2153 -7.82974,-5.0619 -0.747051,-1.5939 10.729297,-18.47093 11.228538,-23.49278 1.348462,-3.81117 -16.400528,-22.58807 -17.247666,-28.74768 -3.684698,-23.93958 -4.602747,-47.32583 -6.904121,-70.98874 l -7.501882,-95.72245 c 1.370558,-5.14531 3.930806,-3.43309 6.030826,-3.36977 23.670911,12.49608 50.748636,26.43164 68.784878,35.63399 3.51898,1.20774 16.41744,0.93924 20.20501,1.96316 8.10487,3.34598 10.54075,8.14098 11.3501,12.12994 l 1.12274,16.21425 c 1.22229,6.36995 4.61957,10.08408 6.80015,12.47284 11.58791,6.48073 47.67906,20.02781 61.29735,25.73831 4.01937,2.75229 3.06536,7.19813 2.12586,8.46193 -1.65844,2.72064 -4.63188,3.4688 -7.44286,4.46064 l -88.4598,9.71706 c -5.24938,0.2203 -9.50353,2.16391 -13.16179,5.01193 -5.56333,5.21841 -6.10644,6.67273 -8.06963,10.3188 -2.783972,6.30673 -3.099592,9.0655 -3.022332,11.6734 -0.005,2.13151 5.148672,2.56211 6.468462,2.42567 14.54062,-1.28456 29.18395,-2.96865 42.92555,-5.65151 L 305.7733,902.08801 c 6.15547,-1.09843 7.19943,-4.90767 8.41411,-10.28325 1.25293,-8.13244 -1.7911,-12.21115 -4.83541,-17.29704 -3.92598,-5.19343 -7.25552,-10.78449 -12.71207,-14.95754 -6.0247,-4.28849 -13.77043,-5.7991 -21.78641,-6.87352 l -20.21395,-1.88664 c -4.69182,-1.29504 -10.05674,-1.58043 -13.67053,-4.49251 -7.2159,-4.30964 -11.62445,-10.31596 -15.87134,-16.60494 -2.17521,-6.43614 -0.6114,-15.45718 -0.5534,-24.94569 1.19222,-12.14856 4.71607,-23.75258 8.17489,-35.15712 3.10614,-6.56381 7.7019,-9.18629 13.45022,-9.97294 4.86082,0.25302 8.65999,2.16451 14.25722,7.82815 l 154.70748,148.01405 c 4.00763,4.39705 1.47089,8.70684 -0.63159,10.70955 -6.59633,6.51138 -13.40064,10.6741 -14.71321,10.89794 z"
       id="path3001"
       inkscape:connector-curvature="0"
       sodipodi:nodetypes="ccccccccccccccccccccccccccccccccccccccc" />
    <path
       sodipodi:type="arc"
       style="fill:#ffffff;fill-opacity:1;stroke:#000000;stroke-width:0;stroke-miterlimit:4;stroke-opacity:1;stroke-dasharray:none"
       id="path3771"
       sodipodi:cx="67.25721"
       sodipodi:cy="364.05157"
       sodipodi:rx="3.124418"
       sodipodi:ry="3.1543169"
       d="m 70.381628,364.05157 a 3.124418,3.1543169 0 1 1 -6.248836,0 3.124418,3.1543169 0 1 1 6.248836,0 z"
       transform="translate(-5.1335348,647.3689)" />
    <path
       transform="translate(5.3364912,620.46736)"
       sodipodi:type="arc"
       style="fill:#ffffff;fill-opacity:1;stroke-width:1.00099707;stroke-miterlimit:4;stroke-dasharray:none"
       id="path3771-5"
       sodipodi:cx="67.25721"
       sodipodi:cy="364.05157"
       sodipodi:rx="3.124418"
       sodipodi:ry="3.1543169"
       d="m 70.381628,364.05157 a 3.124418,3.1543169 0 1 1 -6.248836,0 3.124418,3.1543169 0 1 1 6.248836,0 z" />
    <path
       transform="translate(-11.996446,592.26422)"
       sodipodi:type="arc"
       style="fill:#ffffff;fill-opacity:1;stroke-width:1.00099707;stroke-miterlimit:4;stroke-dasharray:none"
       id="path3771-2"
       sodipodi:cx="67.25721"
       sodipodi:cy="364.05157"
       sodipodi:rx="3.124418"
       sodipodi:ry="3.1543169"
       d="m 70.381628,364.05157 a 3.124418,3.1543169 0 1 1 -6.248836,0 3.124418,3.1543169 0 1 1 6.248836,0 z" />
    <path
       transform="translate(-24.584431,422.5364)"
       sodipodi:type="arc"
       style="fill:#ffffff;fill-opacity:1;stroke-width:1.00099707;stroke-miterlimit:4;stroke-dasharray:none"
       id="path3771-3"
       sodipodi:cx="67.25721"
       sodipodi:cy="364.05157"
       sodipodi:rx="3.124418"
       sodipodi:ry="3.1543169"
       d="m 70.381628,364.05157 a 3.124418,3.1543169 0 1 1 -6.248836,0 3.124418,3.1543169 0 1 1 6.248836,0 z" />
    <path
       transform="translate(48.823171,457.78471)"
       sodipodi:type="arc"
       style="fill:#ffffff;fill-opacity:1;stroke-width:1.00099707;stroke-miterlimit:4;stroke-dasharray:none"
       id="path3771-1"
       sodipodi:cx="67.25721"
       sodipodi:cy="364.05157"
       sodipodi:rx="3.124418"
       sodipodi:ry="3.1543169"
       d="m 70.381628,364.05157 a 3.124418,3.1543169 0 1 1 -6.248836,0 3.124418,3.1543169 0 1 1 6.248836,0 z" />
    <path
       transform="translate(76.147318,464.50663)"
       sodipodi:type="arc"
       style="fill:#ffffff;fill-opacity:1;stroke-width:1.00099707;stroke-miterlimit:4;stroke-dasharray:none"
       id="path3771-6"
       sodipodi:cx="67.25721"
       sodipodi:cy="364.05157"
       sodipodi:rx="3.124418"
       sodipodi:ry="3.1543169"
       d="m 70.381628,364.05157 a 3.124418,3.1543169 0 1 1 -6.248836,0 3.124418,3.1543169 0 1 1 6.248836,0 z" />
    <path
       transform="translate(86.909651,499.46585)"
       sodipodi:type="arc"
       style="fill:#ffffff;fill-opacity:1;stroke-width:1.00099707;stroke-miterlimit:4;stroke-dasharray:none"
       id="path3771-8"
       sodipodi:cx="67.25721"
       sodipodi:cy="364.05157"
       sodipodi:rx="3.124418"
       sodipodi:ry="3.1543169"
       d="m 70.381628,364.05157 a 3.124418,3.1543169 0 1 1 -6.248836,0 3.124418,3.1543169 0 1 1 6.248836,0 z" />
    <path
       transform="translate(151.91891,530.51954)"
       sodipodi:type="arc"
       style="fill:#ffffff;fill-opacity:1;stroke-width:1.00099707;stroke-miterlimit:4;stroke-dasharray:none"
       id="path3771-82"
       sodipodi:cx="67.25721"
       sodipodi:cy="364.05157"
       sodipodi:rx="3.124418"
       sodipodi:ry="3.1543169"
       d="m 70.381628,364.05157 a 3.124418,3.1543169 0 1 1 -6.248836,0 3.124418,3.1543169 0 1 1 6.248836,0 z" />
    <path
       transform="translate(47.784619,550.76738)"
       sodipodi:type="arc"
       style="fill:#ffffff;fill-opacity:1;stroke-width:1.00099707;stroke-miterlimit:4;stroke-dasharray:none"
       id="path3771-7"
       sodipodi:cx="67.25721"
       sodipodi:cy="364.05157"
       sodipodi:rx="3.124418"
       sodipodi:ry="3.1543169"
       d="m 70.381628,364.05157 a 3.124418,3.1543169 0 1 1 -6.248836,0 3.124418,3.1543169 0 1 1 6.248836,0 z" />
    <path
       transform="translate(31.301746,575.65229)"
       sodipodi:type="arc"
       style="fill:#ffffff;fill-opacity:1;stroke-width:1.00099707;stroke-miterlimit:4;stroke-dasharray:none"
       id="path3771-71"
       sodipodi:cx="67.25721"
       sodipodi:cy="364.05157"
       sodipodi:rx="3.124418"
       sodipodi:ry="3.1543169"
       d="m 70.381628,364.05157 a 3.124418,3.1543169 0 1 1 -6.248836,0 3.124418,3.1543169 0 1 1 6.248836,0 z" />
    <path
       transform="translate(246.81492,527.72956)"
       sodipodi:type="arc"
       style="fill:#ffffff;fill-opacity:1;stroke-width:1.00099707;stroke-miterlimit:4;stroke-dasharray:none"
       id="path3771-26"
       sodipodi:cx="67.25721"
       sodipodi:cy="364.05157"
       sodipodi:rx="3.124418"
       sodipodi:ry="3.1543169"
       d="m 70.381628,364.05157 a 3.124418,3.1543169 0 1 1 -6.248836,0 3.124418,3.1543169 0 1 1 6.248836,0 z"
       inkscape:transform-center-x="0.14949369"
       inkscape:transform-center-y="-0.29898738" />
    <path
       transform="translate(218.5726,490.67393)"
       sodipodi:type="arc"
       style="fill:#ffffff;fill-opacity:1;stroke-width:1.00099707;stroke-miterlimit:4;stroke-dasharray:none"
       id="path3771-0"
       sodipodi:cx="67.25721"
       sodipodi:cy="364.05157"
       sodipodi:rx="3.124418"
       sodipodi:ry="3.1543169"
       d="m 70.381628,364.05157 a 3.124418,3.1543169 0 1 1 -6.248836,0 3.124418,3.1543169 0 1 1 6.248836,0 z" />
    <path
       transform="translate(164.54028,474.7086)"
       sodipodi:type="arc"
       style="fill:#ffffff;fill-opacity:1;stroke-width:1.00099707;stroke-miterlimit:4;stroke-dasharray:none"
       id="path3771-4"
       sodipodi:cx="67.25721"
       sodipodi:cy="364.05157"
       sodipodi:rx="3.124418"
       sodipodi:ry="3.1543169"
       d="m 70.381628,364.05157 a 3.124418,3.1543169 0 1 1 -6.248836,0 3.124418,3.1543169 0 1 1 6.248836,0 z" />
    <path
       transform="translate(178.98028,395.64755)"
       sodipodi:type="arc"
       style="fill:#ffffff;fill-opacity:1;stroke-width:1.00099707;stroke-miterlimit:4;stroke-dasharray:none"
       id="path3771-9"
       sodipodi:cx="67.25721"
       sodipodi:cy="364.05157"
       sodipodi:rx="3.124418"
       sodipodi:ry="3.1543169"
       d="m 70.381628,364.05157 a 3.124418,3.1543169 0 1 1 -6.248836,0 3.124418,3.1543169 0 1 1 6.248836,0 z" />
    <path
       transform="translate(349.82724,556.50276)"
       sodipodi:type="arc"
       style="fill:#ffffff;fill-opacity:1;stroke-width:1.00099707;stroke-miterlimit:4;stroke-dasharray:none"
       id="path3771-46"
       sodipodi:cx="67.25721"
       sodipodi:cy="364.05157"
       sodipodi:rx="3.124418"
       sodipodi:ry="3.1543169"
       d="m 70.381628,364.05157 a 3.124418,3.1543169 0 1 1 -6.248836,0 3.124418,3.1543169 0 1 1 6.248836,0 z" />
    <path
       inkscape:connector-curvature="0"
       style="fill:#ff0000;fill-rule:evenodd;stroke:#ffffff;stroke-width:0.64545381;stroke-linecap:butt;stroke-linejoin:miter;stroke-miterlimit:4;stroke-opacity:0;stroke-dasharray:none;display:inline"
       d="m 217.83365,995.41684 -0.0972,-9.39033 -17.18913,6.75213 17.28633,2.6382 z"
       id="path2302" />
    <path
       style="fill:none;stroke:#000000;stroke-width:4.00398827;stroke-linecap:butt;stroke-linejoin:miter;stroke-miterlimit:4;stroke-opacity:1;stroke-dasharray:none"
       d="m 352.61055,947.34114 c -1.32734,0.009 -2.64589,0.0224 -5.3701,-0.76715 -3.99803,-1.55109 -7.07609,-1.61704 -9.20587,-1.68775 -6.52502,0.60911 -13.90908,1.98446 -20.63651,3.60563 -5.32451,0.38742 -12.87003,-1.0216 -16.03357,-0.0767 l -157.26707,34.3686 c -4.79564,0.96386 -9.84329,1.69131 -10.43332,2.4549 -3.30836,2.13086 -4.15858,3.67392 -7.05784,4.44951 -7.2278,2.21576 -19.24063,3.35796 -22.01739,6.21396 -9.594242,14.67146 -3.81021,5.72806 -6.060542,8.97566"
       id="path3958"
       inkscape:connector-curvature="0"
       sodipodi:nodetypes="cccccccccc" />
    <path
       inkscape:connector-curvature="0"
       style="fill:#ff0000;fill-rule:evenodd;stroke:#ffffff;stroke-width:0.64545381;stroke-linecap:butt;stroke-linejoin:miter;stroke-miterlimit:4;stroke-opacity:0;stroke-dasharray:none;display:inline"
       d="m 76.124769,810.01894 -4.108953,8.44418 18.394788,1.64006 -14.285835,-10.08424 z"
       id="path2302-0" />
    <path
       inkscape:connector-curvature="0"
       style="fill:#ff0000;fill-rule:evenodd;stroke:#ffffff;stroke-width:0.64545381;stroke-linecap:butt;stroke-linejoin:miter;stroke-miterlimit:4;stroke-opacity:0;stroke-dasharray:none;display:inline"
       d="m 343.41464,824.767 -7.70663,5.36614 15.2566,10.40647 -7.54997,-15.77261 z"
       id="path2302-0-3" />
    <g
       style="stroke-width:2.41231203;stroke-miterlimit:4;stroke-dasharray:none;display:inline"
       transform="matrix(0.66459472,-0.66776827,0.74220673,0.58125114,-281.13872,1239.8646)"
       id="g12355">
      <rect
         width="3.6360872"
         height="3.794178"
         x="503.13138"
         y="-225.66817"
         transform="matrix(0.7650015,0.6440285,-0.6440285,0.7650015,0,0)"
         style="fill:#000000;fill-opacity:1;fill-rule:nonzero;stroke:none"
         id="rect9376" />
      <rect
         width="3.6360872"
         height="3.794178"
         x="503.13843"
         y="-210.80884"
         transform="matrix(0.7650015,0.6440285,-0.6440285,0.7650015,0,0)"
         style="fill:#000000;fill-opacity:1;fill-rule:nonzero;stroke:none"
         id="rect10347" />
      <rect
         width="3.6360872"
         height="3.794178"
         x="503.22794"
         y="-233.16934"
         transform="matrix(0.7650015,0.6440285,-0.6440285,0.7650015,0,0)"
         style="fill:#000000;fill-opacity:1;fill-rule:nonzero;stroke:none"
         id="rect10349" />
      <rect
         width="3.6360872"
         height="3.794178"
         x="503.10162"
         y="-221.97508"
         transform="matrix(0.7650015,0.6440285,-0.6440285,0.7650015,0,0)"
         style="fill:#ffffff;fill-opacity:1;fill-rule:nonzero;stroke:none"
         id="rect10351" />
      <rect
         width="3.6360872"
         height="3.794178"
         x="503.14481"
         y="-229.39552"
         transform="matrix(0.7650015,0.6440285,-0.6440285,0.7650015,0,0)"
         style="fill:#ffffff;fill-opacity:1;fill-rule:nonzero;stroke:none"
         id="rect12293" />
      <rect
         width="3.6360872"
         height="3.794178"
         x="503.1427"
         y="-214.46121"
         transform="matrix(0.7650015,0.6440285,-0.6440285,0.7650015,0,0)"
         style="fill:#ffffff;fill-opacity:1;fill-rule:nonzero;stroke:none"
         id="rect12295" />
      <rect
         width="3.6360872"
         height="3.794178"
         x="503.14166"
         y="-206.99403"
         transform="matrix(0.7650015,0.6440285,-0.6440285,0.7650015,0,0)"
         style="fill:#ffffff;fill-opacity:1;fill-rule:nonzero;stroke:none"
         id="rect12297" />
      <rect
         width="3.6360872"
         height="3.794178"
         x="506.87115"
         y="-233.22285"
         transform="matrix(0.7650015,0.6440285,-0.6440285,0.7650015,0,0)"
         style="fill:#ffffff;fill-opacity:1;fill-rule:nonzero;stroke:none"
         id="rect12299" />
      <rect
         width="3.6360872"
         height="3.794178"
         x="503.1145"
         y="-203.19873"
         transform="matrix(0.7650015,0.6440285,-0.6440285,0.7650015,0,0)"
         style="fill:#000000;fill-opacity:1;fill-rule:nonzero;stroke:none"
         id="rect12301" />
      <rect
         width="3.6360872"
         height="3.794178"
         x="503.12387"
         y="-218.21779"
         transform="matrix(0.7650015,0.6440285,-0.6440285,0.7650015,0,0)"
         style="fill:#000000;fill-opacity:1;fill-rule:nonzero;stroke:none"
         id="rect12303" />
      <rect
         width="3.6360872"
         height="3.794178"
         x="506.6814"
         y="-221.93484"
         transform="matrix(0.7650015,0.6440285,-0.6440285,0.7650015,0,0)"
         style="fill:#000000;fill-opacity:1;fill-rule:nonzero;stroke:none"
         id="rect12321" />
      <rect
         width="3.6360872"
         height="3.794178"
         x="506.68845"
         y="-207.07552"
         transform="matrix(0.7650015,0.6440285,-0.6440285,0.7650015,0,0)"
         style="fill:#000000;fill-opacity:1;fill-rule:nonzero;stroke:none"
         id="rect12323" />
      <rect
         width="3.6360872"
         height="3.794178"
         x="506.77795"
         y="-229.43602"
         transform="matrix(0.7650015,0.6440285,-0.6440285,0.7650015,0,0)"
         style="fill:#000000;fill-opacity:1;fill-rule:nonzero;stroke:none"
         id="rect12325" />
      <rect
         width="3.6360872"
         height="3.794178"
         x="506.65164"
         y="-218.24176"
         transform="matrix(0.7650015,0.6440285,-0.6440285,0.7650015,0,0)"
         style="fill:#ffffff;fill-opacity:1;fill-rule:nonzero;stroke:none"
         id="rect12327" />
      <rect
         width="3.6360872"
         height="3.794178"
         x="506.69482"
         y="-225.6622"
         transform="matrix(0.7650015,0.6440285,-0.6440285,0.7650015,0,0)"
         style="fill:#ffffff;fill-opacity:1;fill-rule:nonzero;stroke:none"
         id="rect12329" />
      <rect
         width="3.6360872"
         height="3.794178"
         x="506.69272"
         y="-210.72789"
         transform="matrix(0.7650015,0.6440285,-0.6440285,0.7650015,0,0)"
         style="fill:#ffffff;fill-opacity:1;fill-rule:nonzero;stroke:none"
         id="rect12331" />
      <rect
         width="3.6360872"
         height="3.794178"
         x="506.69168"
         y="-203.26071"
         transform="matrix(0.7650015,0.6440285,-0.6440285,0.7650015,0,0)"
         style="fill:#ffffff;fill-opacity:1;fill-rule:nonzero;stroke:none"
         id="rect12333" />
      <rect
         width="3.6360872"
         height="3.794178"
         x="506.67389"
         y="-214.48447"
         transform="matrix(0.7650015,0.6440285,-0.6440285,0.7650015,0,0)"
         style="fill:#000000;fill-opacity:1;fill-rule:nonzero;stroke:none"
         id="rect12335" />
      <rect
         width="3.6360872"
         height="3.794178"
         x="510.23587"
         y="-225.71014"
         transform="matrix(0.7650015,0.6440285,-0.6440285,0.7650015,0,0)"
         style="fill:#000000;fill-opacity:1;fill-rule:nonzero;stroke:none"
         id="rect12337" />
      <rect
         width="3.6360872"
         height="3.794178"
         x="510.24292"
         y="-210.85081"
         transform="matrix(0.7650015,0.6440285,-0.6440285,0.7650015,0,0)"
         style="fill:#000000;fill-opacity:1;fill-rule:nonzero;stroke:none"
         id="rect12339" />
      <rect
         width="3.6360872"
         height="3.794178"
         x="510.33243"
         y="-233.21132"
         transform="matrix(0.7650015,0.6440285,-0.6440285,0.7650015,0,0)"
         style="fill:#000000;fill-opacity:1;fill-rule:nonzero;stroke:none"
         id="rect12341" />
      <rect
         width="3.6360872"
         height="3.794178"
         x="510.20612"
         y="-222.01706"
         transform="matrix(0.7650015,0.6440285,-0.6440285,0.7650015,0,0)"
         style="fill:#ffffff;fill-opacity:1;fill-rule:nonzero;stroke:none"
         id="rect12343" />
      <rect
         width="3.6360872"
         height="3.794178"
         x="510.2493"
         y="-229.4375"
         transform="matrix(0.7650015,0.6440285,-0.6440285,0.7650015,0,0)"
         style="fill:#ffffff;fill-opacity:1;fill-rule:nonzero;stroke:none"
         id="rect12345" />
      <rect
         width="3.6360872"
         height="3.794178"
         x="510.24719"
         y="-214.50319"
         transform="matrix(0.7650015,0.6440285,-0.6440285,0.7650015,0,0)"
         style="fill:#ffffff;fill-opacity:1;fill-rule:nonzero;stroke:none"
         id="rect12347" />
      <rect
         width="3.6360872"
         height="3.794178"
         x="510.24615"
         y="-207.03601"
         transform="matrix(0.7650015,0.6440285,-0.6440285,0.7650015,0,0)"
         style="fill:#ffffff;fill-opacity:1;fill-rule:nonzero;stroke:none"
         id="rect12349" />
      <rect
         width="3.6360872"
         height="3.794178"
         x="510.22836"
         y="-218.25977"
         transform="matrix(0.7650015,0.6440285,-0.6440285,0.7650015,0,0)"
         style="fill:#000000;fill-opacity:1;fill-rule:nonzero;stroke:none"
         id="rect12351" />
      <rect
         width="3.6360872"
         height="3.794178"
         x="510.32791"
         y="-203.24594"
         transform="matrix(0.7650015,0.6440285,-0.6440285,0.7650015,0,0)"
         style="fill:#000000;fill-opacity:1;fill-rule:nonzero;stroke:none"
         id="rect12353" />
    </g>
    <path
       sodipodi:type="arc"
       style="fill:#ffffff;fill-opacity:0;stroke:#000000;stroke-width:1.00099707;stroke-miterlimit:4;stroke-opacity:1;stroke-dasharray:none"
       id="path4141"
       sodipodi:cx="43.535667"
       sodipodi:cy="312.78802"
       sodipodi:rx="9.7733126"
       sodipodi:ry="9.854084"
       d="m 53.30898,312.78802 a 9.7733126,9.854084 0 1 1 -19.546625,0 9.7733126,9.854084 0 1 1 19.546625,0 z"
       transform="translate(-5.1506498,647.45061)" />
    <path
       sodipodi:type="arc"
       style="fill:#ffffff;fill-opacity:0;stroke:#000000;stroke-width:1.00099707;stroke-miterlimit:4;stroke-opacity:1;stroke-dasharray:none"
       id="path4141-6"
       sodipodi:cx="43.535667"
       sodipodi:cy="312.78802"
       sodipodi:rx="9.7733126"
       sodipodi:ry="9.854084"
       d="m 53.30898,312.78802 a 9.7733126,9.854084 0 1 1 -19.546625,0 9.7733126,9.854084 0 1 1 19.546625,0 z"
       transform="translate(10.761271,672.48968)" />
    <path
       sodipodi:type="arc"
       style="fill:#ffffff;fill-opacity:0;stroke:#000000;stroke-width:1.00099707;stroke-miterlimit:4;stroke-opacity:1;stroke-dasharray:none"
       id="path4141-2"
       sodipodi:cx="43.535667"
       sodipodi:cy="312.78802"
       sodipodi:rx="9.7733126"
       sodipodi:ry="9.854084"
       d="m 53.30898,312.78802 a 9.7733126,9.854084 0 1 1 -19.546625,0 9.7733126,9.854084 0 1 1 19.546625,0 z"
       transform="translate(4.9457462,710.45214)" />
    <path
       sodipodi:type="arc"
       style="fill:#ffffff;fill-opacity:0;stroke:#000000;stroke-width:1.00099707;stroke-miterlimit:4;stroke-opacity:1;stroke-dasharray:none"
       id="path4141-4"
       sodipodi:cx="43.535667"
       sodipodi:cy="312.78802"
       sodipodi:rx="9.7733126"
       sodipodi:ry="9.854084"
       d="m 53.30898,312.78802 a 9.7733126,9.854084 0 1 1 -19.546625,0 9.7733126,9.854084 0 1 1 19.546625,0 z"
       transform="translate(37.577303,627.25782)" />
    <path
       sodipodi:type="arc"
       style="fill:#ffffff;fill-opacity:0;stroke:#000000;stroke-width:1.00099707;stroke-miterlimit:4;stroke-opacity:1;stroke-dasharray:none"
       id="path4141-5"
       sodipodi:cx="43.535667"
       sodipodi:cy="312.78802"
       sodipodi:rx="9.7733126"
       sodipodi:ry="9.854084"
       d="m 53.30898,312.78802 a 9.7733126,9.854084 0 1 1 -19.546625,0 9.7733126,9.854084 0 1 1 19.546625,0 z"
       transform="translate(-8.3007268,458.93068)" />
    <path
       sodipodi:type="arc"
       style="fill:#ffffff;fill-opacity:0;stroke:#000000;stroke-width:1.00099707;stroke-miterlimit:4;stroke-opacity:1;stroke-dasharray:none"
       id="path4141-8"
       sodipodi:cx="43.535667"
       sodipodi:cy="312.78802"
       sodipodi:rx="9.7733126"
       sodipodi:ry="9.854084"
       d="m 53.30898,312.78802 a 9.7733126,9.854084 0 1 1 -19.546625,0 9.7733126,9.854084 0 1 1 19.546625,0 z"
       transform="translate(109.62519,501.90095)" />
    <path
       sodipodi:type="arc"
       style="fill:#ffffff;fill-opacity:0;stroke:#000000;stroke-width:1.00099707;stroke-miterlimit:4;stroke-opacity:1;stroke-dasharray:none"
       id="path4141-81"
       sodipodi:cx="43.535667"
       sodipodi:cy="312.78802"
       sodipodi:rx="9.7733126"
       sodipodi:ry="9.854084"
       d="m 53.30898,312.78802 a 9.7733126,9.854084 0 1 1 -19.546625,0 9.7733126,9.854084 0 1 1 19.546625,0 z"
       transform="translate(63.424081,524.51688)" />
    <path
       sodipodi:type="arc"
       style="fill:#ffffff;fill-opacity:0;stroke:#000000;stroke-width:1.00099707;stroke-miterlimit:4;stroke-opacity:1;stroke-dasharray:none"
       id="path4141-21"
       sodipodi:cx="43.535667"
       sodipodi:cy="312.78802"
       sodipodi:rx="9.7733126"
       sodipodi:ry="9.854084"
       d="m 53.30898,312.78802 a 9.7733126,9.854084 0 1 1 -19.546625,0 9.7733126,9.854084 0 1 1 19.546625,0 z"
       transform="translate(96.863348,560.21774)" />
    <path
       sodipodi:type="arc"
       style="fill:#ffffff;fill-opacity:0;fill-rule:nonzero;stroke:#000000;stroke-width:1.00099707;stroke-miterlimit:4;stroke-opacity:1;stroke-dasharray:none"
       id="path4141-49"
       sodipodi:cx="43.535667"
       sodipodi:cy="312.78802"
       sodipodi:rx="9.7733126"
       sodipodi:ry="9.854084"
       d="m 53.30898,312.78802 a 9.7733126,9.854084 0 1 1 -19.546625,0 9.7733126,9.854084 0 1 1 19.546625,0 z"
       transform="translate(70.047318,582.99521)" />
    <path
       sodipodi:type="arc"
       style="fill:#ffffff;fill-opacity:0;stroke:#000000;stroke-width:1.00099707;stroke-miterlimit:4;stroke-opacity:1;stroke-dasharray:none"
       id="path4141-45"
       sodipodi:cx="43.535667"
       sodipodi:cy="312.78802"
       sodipodi:rx="9.7733126"
       sodipodi:ry="9.854084"
       d="m 53.30898,312.78802 a 9.7733126,9.854084 0 1 1 -19.546625,0 9.7733126,9.854084 0 1 1 19.546625,0 z"
       transform="translate(175.69602,561.02545)" />
    <path
       sodipodi:type="arc"
       style="fill:#ffffff;fill-opacity:0;stroke:#000000;stroke-width:1.00099707;stroke-miterlimit:4;stroke-opacity:1;stroke-dasharray:none"
       id="path4141-29"
       sodipodi:cx="43.535667"
       sodipodi:cy="312.78802"
       sodipodi:rx="9.7733126"
       sodipodi:ry="9.854084"
       d="m 53.30898,312.78802 a 9.7733126,9.854084 0 1 1 -19.546625,0 9.7733126,9.854084 0 1 1 19.546625,0 z"
       transform="translate(286.83717,578.14894)" />
    <path
       sodipodi:type="arc"
       style="fill:#ffffff;fill-opacity:0;stroke:#000000;stroke-width:1.00099707;stroke-miterlimit:4;stroke-opacity:1;stroke-dasharray:none"
       id="path4141-9"
       sodipodi:cx="43.535667"
       sodipodi:cy="312.78802"
       sodipodi:rx="9.7733126"
       sodipodi:ry="9.854084"
       d="m 53.30898,312.78802 a 9.7733126,9.854084 0 1 1 -19.546625,0 9.7733126,9.854084 0 1 1 19.546625,0 z"
       transform="translate(235.78978,557.30998)" />
    <path
       sodipodi:type="arc"
       style="fill:#ffffff;fill-opacity:0;stroke:#000000;stroke-width:1.00099707;stroke-miterlimit:4;stroke-opacity:1;stroke-dasharray:none"
       id="path4141-83"
       sodipodi:cx="43.535667"
       sodipodi:cy="312.78802"
       sodipodi:rx="9.7733126"
       sodipodi:ry="9.854084"
       d="m 53.30898,312.78802 a 9.7733126,9.854084 0 1 1 -19.546625,0 9.7733126,9.854084 0 1 1 19.546625,0 z"
       transform="translate(169.23433,527.90927)" />
    <path
       sodipodi:type="arc"
       style="fill:#ffffff;fill-opacity:0;stroke:#000000;stroke-width:1.00099707;stroke-miterlimit:4;stroke-opacity:1;stroke-dasharray:none"
       id="path4141-86"
       sodipodi:cx="43.535667"
       sodipodi:cy="312.78802"
       sodipodi:rx="9.7733126"
       sodipodi:ry="9.854084"
       d="m 53.30898,312.78802 a 9.7733126,9.854084 0 1 1 -19.546625,0 9.7733126,9.854084 0 1 1 19.546625,0 z"
       transform="translate(202.6736,427.59146)" />
    <path
       sodipodi:type="arc"
       style="fill:#ffffff;fill-opacity:0;stroke:#000000;stroke-width:1.00099707;stroke-miterlimit:4;stroke-opacity:1;stroke-dasharray:none"
       id="path4141-98"
       sodipodi:cx="43.535667"
       sodipodi:cy="312.78802"
       sodipodi:rx="9.7733126"
       sodipodi:ry="9.854084"
       d="m 53.30898,312.78802 a 9.7733126,9.854084 0 1 1 -19.546625,0 9.7733126,9.854084 0 1 1 19.546625,0 z"
       transform="translate(392.00124,608.19582)" />
    <text
       xml:space="preserve"
       style="font-size:14px;font-style:normal;font-variant:normal;font-weight:normal;font-stretch:normal;line-height:125%;letter-spacing:0px;word-spacing:0px;fill:#000000;fill-opacity:1;stroke:none;font-family:Arial;-inkscape-font-specification:Arial"
       x="44.604397"
       y="1028.2479"
       id="text4266"
       sodipodi:linespacing="125%"><tspan
         sodipodi:role="line"
         id="tspan4268"
         x="44.604397"
         y="1028.2479">1</tspan></text>
    <text
       xml:space="preserve"
       style="font-size:14px;font-style:normal;font-variant:normal;font-weight:normal;font-stretch:normal;line-height:125%;letter-spacing:0px;word-spacing:0px;fill:#000000;fill-opacity:1;stroke:none;font-family:Arial;-inkscape-font-specification:Arial"
       x="50.442196"
       y="989.82434"
       id="text4266-6"
       sodipodi:linespacing="125%"><tspan
         sodipodi:role="line"
         id="tspan4268-6"
         x="50.442196"
         y="989.82434">2</tspan></text>
    <text
       xml:space="preserve"
       style="font-size:14px;font-style:normal;font-variant:normal;font-weight:normal;font-stretch:normal;line-height:125%;letter-spacing:0px;word-spacing:0px;fill:#000000;fill-opacity:1;stroke:none;font-family:Arial;-inkscape-font-specification:Arial"
       x="34.28796"
       y="964.94684"
       id="text4266-2"
       sodipodi:linespacing="125%"><tspan
         sodipodi:role="line"
         id="tspan4268-3"
         x="34.28796"
         y="964.94684">3</tspan></text>
    <text
       xml:space="preserve"
       style="font-size:14px;font-style:normal;font-variant:normal;font-weight:normal;font-stretch:normal;line-height:125%;letter-spacing:0px;word-spacing:0px;fill:#000000;fill-opacity:1;stroke:none;font-family:Arial;-inkscape-font-specification:Arial"
       x="73.058128"
       y="945.07709"
       id="text4266-8"
       sodipodi:linespacing="125%"><tspan
         sodipodi:role="line"
         id="tspan4268-2"
         x="73.058128"
         y="945.07709">10</tspan></text>
    <text
       xml:space="preserve"
       style="font-size:14px;font-style:normal;font-variant:normal;font-weight:normal;font-stretch:normal;line-height:125%;letter-spacing:0px;word-spacing:0px;fill:#000000;fill-opacity:1;stroke:none;font-family:Arial;-inkscape-font-specification:Arial"
       x="109.18395"
       y="900.42334"
       id="text4266-62"
       sodipodi:linespacing="125%"><tspan
         sodipodi:role="line"
         id="tspan4268-7"
         x="109.18395"
         y="900.42334">9</tspan></text>
    <text
       xml:space="preserve"
       style="font-size:14px;font-style:normal;font-variant:normal;font-weight:normal;font-stretch:normal;line-height:125%;letter-spacing:0px;word-spacing:0px;fill:#000000;fill-opacity:1;stroke:none;font-family:Arial;-inkscape-font-specification:Arial"
       x="136.70583"
       y="877.71393"
       id="text4266-5"
       sodipodi:linespacing="125%"><tspan
         sodipodi:role="line"
         id="tspan4268-78"
         x="136.70583"
         y="877.71393">7</tspan></text>
    <text
       xml:space="preserve"
       style="font-size:14px;font-style:normal;font-variant:normal;font-weight:normal;font-stretch:normal;line-height:125%;letter-spacing:0px;word-spacing:0px;fill:#000000;fill-opacity:1;stroke:none;font-family:Arial;-inkscape-font-specification:Arial"
       x="103.105"
       y="841.36688"
       id="text4266-27"
       sodipodi:linespacing="125%"><tspan
         sodipodi:role="line"
         id="tspan4268-8"
         x="103.105"
         y="841.36688">5</tspan></text>
    <text
       xml:space="preserve"
       style="font-size:14px;font-style:normal;font-variant:normal;font-weight:normal;font-stretch:normal;line-height:125%;letter-spacing:0px;word-spacing:0px;fill:#000000;fill-opacity:1;stroke:none;font-family:Arial;-inkscape-font-specification:Arial"
       x="31.380198"
       y="776.26532"
       id="text4266-0"
       sodipodi:linespacing="125%"><tspan
         sodipodi:role="line"
         id="tspan4268-20"
         x="31.380198"
         y="776.26532">4</tspan></text>
    <text
       xml:space="preserve"
       style="font-size:14px;font-style:normal;font-variant:normal;font-weight:normal;font-stretch:normal;line-height:125%;letter-spacing:0px;word-spacing:0px;fill:#000000;fill-opacity:1;stroke:none;font-family:Arial;-inkscape-font-specification:Arial"
       x="149.14456"
       y="819.2356"
       id="text4266-89"
       sodipodi:linespacing="125%"><tspan
         sodipodi:role="line"
         id="tspan4268-28"
         x="149.14456"
         y="819.2356">6</tspan></text>
    <text
       xml:space="preserve"
       style="font-size:14px;font-style:normal;font-variant:normal;font-weight:normal;font-stretch:normal;line-height:125%;letter-spacing:0px;word-spacing:0px;fill:#000000;fill-opacity:1;stroke:none;font-family:Arial;-inkscape-font-specification:Arial"
       x="204.71515"
       y="845.56702"
       id="text4266-20"
       sodipodi:linespacing="125%"><tspan
         sodipodi:role="line"
         id="tspan4268-5"
         x="204.71515"
         y="845.56702">13</tspan></text>
    <text
       xml:space="preserve"
       style="font-size:14px;font-style:normal;font-variant:normal;font-weight:normal;font-stretch:normal;line-height:125%;letter-spacing:0px;word-spacing:0px;fill:#000000;fill-opacity:1;stroke:none;font-family:Arial;-inkscape-font-specification:Arial"
       x="215.5385"
       y="878.68317"
       id="text4266-52"
       sodipodi:linespacing="125%"><tspan
         sodipodi:role="line"
         id="tspan4268-76"
         x="215.5385"
         y="878.68317">8</tspan></text>
    <text
       xml:space="preserve"
       style="font-size:14px;font-style:normal;font-variant:normal;font-weight:normal;font-stretch:normal;line-height:125%;letter-spacing:0px;word-spacing:0px;fill:#000000;fill-opacity:1;stroke:none;font-family:Arial;-inkscape-font-specification:Arial"
       x="270.94754"
       y="874.64459"
       id="text4266-7"
       sodipodi:linespacing="125%"><tspan
         sodipodi:role="line"
         id="tspan4268-87"
         x="270.94754"
         y="874.64459">12</tspan></text>
    <text
       xml:space="preserve"
       style="font-size:14px;font-style:normal;font-variant:normal;font-weight:normal;font-stretch:normal;line-height:125%;letter-spacing:0px;word-spacing:0px;fill:#000000;fill-opacity:1;stroke:none;font-family:Arial;-inkscape-font-specification:Arial"
       x="322.31796"
       y="895.32202"
       id="text4266-81"
       sodipodi:linespacing="125%"><tspan
         sodipodi:role="line"
         id="tspan4268-60"
         x="322.31796"
         y="895.32202">11</tspan></text>
    <text
       xml:space="preserve"
       style="font-size:14px;font-style:normal;font-variant:normal;font-weight:normal;font-stretch:normal;line-height:125%;letter-spacing:0px;word-spacing:0px;fill:#000000;fill-opacity:1;stroke:none;font-family:Arial;-inkscape-font-specification:Arial"
       x="427.15897"
       y="925.53046"
       id="text4266-9"
       sodipodi:linespacing="125%"><tspan
         sodipodi:role="line"
         id="tspan4268-58"
         x="427.15897"
         y="925.53046">15</tspan></text>
    <text
       xml:space="preserve"
       style="font-size:14px;font-style:normal;font-variant:normal;font-weight:normal;font-stretch:normal;line-height:125%;letter-spacing:0px;word-spacing:0px;fill:#000000;fill-opacity:1;stroke:none;font-family:Arial;-inkscape-font-specification:Arial"
       x="238.15442"
       y="745.57227"
       id="text4266-90"
       sodipodi:linespacing="125%"><tspan
         sodipodi:role="line"
         id="tspan4268-0"
         x="238.15442"
         y="745.57227">14</tspan></text>
  </g>
</svg>
